<?xml version="1.0" encoding="utf-8"?>
<!-- Generator: Adobe Illustrator 24.1.3, SVG Export Plug-In . SVG Version: 6.00 Build 0)  -->
<svg version="1.1" id="Layer_1" xmlns="http://www.w3.org/2000/svg" xmlns:xlink="http://www.w3.org/1999/xlink" x="0px" y="0px"
	 viewBox="0 0 1000 1000" style="enable-background:new 0 0 1000 1000;" xml:space="preserve">
<style type="text/css">
	.st0{fill:#FFFFFF;}
	.st1{fill-rule:evenodd;clip-rule:evenodd;}
</style>
<circle id="ROUND" class="st0" cx="500" cy="461.49" r="339.15"/>
<g>
	<g>
		<path class="st1" d="M765.89,492.68v137.28h-45.26l1.4-123.57C738.68,501.71,753.26,497.08,765.89,492.68z"/>
		<path class="st1" d="M589.66,529.25l9.56,25.5l10.16-27.11c15.88-1.55,31.69-3.71,47.38-6.44l-40.74,108.76h-34.15l-36.99-99.42
			C559.78,530.67,574.73,530.24,589.66,529.25z"/>
		<path class="st1" d="M477.96,629.96h-46.2V517.62c14.81,3.4,29.84,6.1,45.02,8.13L477.96,629.96z"/>
		<path class="st1" d="M273.69,585.16h37.8c22.25,0,38.58-4.12,49.08-12.44c10.5-8.25,15.79-21.08,15.79-38.42
			c0-15.65-3.77-28.13-11.34-37.48c18.7,7.51,37.97,13.69,57.65,18.62c0.55,4.29,0.83,8.74,0.83,13.34
			c0,15.55-2.88,30.09-8.63,43.63c-5.83,13.61-13.77,24.88-23.96,33.83c-10.04,8.55-21.39,14.62-34.14,18.28
			c-12.68,3.66-30.57,5.44-53.67,5.44h-76.53v-227.8c28.64,31.16,61.49,56.07,97.18,75.33c-3.87-0.4-7.96-0.59-12.25-0.59h-37.8
			V585.16z"/>
	</g>
	<path class="st1" d="M578.69,475.85c19.21-2.6,38.01-6.19,56.32-10.7l0.82-0.2l0.81-0.2c1.89-0.47,3.78-0.96,5.67-1.45l0.8-0.21
		l2.42-0.64l0.8-0.22l2.41-0.66l0.8-0.21l1.6-0.45l0.8-0.22l0.8-0.23l2.39-0.68l0.8-0.23l2.39-0.7l0.79-0.23l0.79-0.24l1.58-0.47
		l0.79-0.24l0.79-0.24l1.58-0.49l0.79-0.25l0.78-0.25l0.79-0.25l0.18-0.05l0.61-0.2l0.78-0.25l0.78-0.25l0.79-0.25l0.29-0.09
		l0.49-0.16l0.78-0.25l0.78-0.26l0.78-0.26l0.78-0.25l0.78-0.26l0.78-0.26l0.77-0.26l0.78-0.26l0.78-0.27l0.77-0.26l0.78-0.27
		l0.64-0.22l0.14-0.05l0.77-0.27l0.77-0.27l0.77-0.27l0.77-0.27l0.77-0.27l0.77-0.27l0.77-0.28l0,0
		c13.13-4.68,25.95-9.86,38.44-15.49l0.69-0.31l0.7-0.31l0.69-0.32l0.7-0.32l0.07-0.03l0.62-0.29l0.69-0.32l0.69-0.32l0.69-0.32
		l0.68-0.32l0.69-0.32l0.69-0.32l0.68-0.33l1.2-0.57l0.17-0.08l0.68-0.32l0.68-0.33l1.37-0.66l0.68-0.33l0.68-0.33l0,0l2.04-1
		l0.68-0.33l0.67-0.33l0.68-0.33v-0.01l0.68-0.33l0.67-0.34l0.68-0.34l1.91-0.97l0.1-0.05l0.67-0.34l0.67-0.35l1.34-0.69l0.67-0.35
		l0.67-0.35l0.67-0.35l0.09-0.05l0.58-0.3l0.67-0.35l0.67-0.35l0.14-0.07l1.85-0.99l0.66-0.36l0.66-0.35
		c2.43-1.31,4.83-2.63,7.22-3.97l0.65-0.37l0.65-0.37l1.3-0.74l0.65-0.37c5.26-3,10.44-6.09,15.54-9.25
		c-5.14,1.37-10.32,2.7-15.54,3.99V302.71h-70.54l-47.16,125.88c-21.13,2.39-42.67,4.11-64.57,5.15
		c-10.41,0.49-20.79,0.82-31.11,0.99l-49.5-132.02h-71.24v126.72c-10.83-1.14-21.58-2.45-32.24-3.94c4.45-9.44,6.7-20.06,6.7-31.79
		c0-29.71-9.18-52.26-27.61-67.74c-18.44-15.48-45.34-23.26-80.81-23.26h-71.25v81.18c-9.11-3.21-18.09-6.57-26.92-10.05
		c8.64,7.24,17.63,14.16,26.92,20.75l0,0l0.14,0.1l1.92,1.35c0.99,0.69,1.98,1.38,2.98,2.07l1.7,1.16c1.11,0.76,2.23,1.51,3.35,2.26
		l1.75,1.16c1.12,0.74,2.24,1.46,3.36,2.19l1.54,1c1.15,0.74,2.31,1.47,3.47,2.21l1.58,0.99c1.23,0.77,2.48,1.53,3.72,2.3l1.08,0.66
		c1.38,0.83,2.76,1.66,4.14,2.47l0.86,0.51c1.5,0.88,3,1.75,4.52,2.61l0.69,0.4c1.39,0.79,2.78,1.58,4.17,2.35l1.2,0.67
		c1.4,0.77,2.8,1.53,4.2,2.29l1.15,0.62l0.08,0.04c12.92,6.89,26.28,13.22,40.03,18.94l0.17,0.08l1.29,0.54l0.04,0.02
		c1.28,0.52,2.56,1.04,3.84,1.56l1.3,0.52l0.35,0.14c1.34,0.53,2.69,1.07,4.04,1.59l2.18,0.84c1.22,0.47,2.44,0.92,3.66,1.38
		l0.21,0.08l1.31,0.49l0.27,0.1l3.52,1.28l2.85,1.01l2.73,0.95l3.32,1.13l2.52,0.84l3.38,1.1l2.55,0.81
		c1.18,0.38,2.35,0.74,3.53,1.1l2.07,0.64c1.3,0.39,2.61,0.78,3.92,1.17l2.02,0.58c1.46,0.43,2.93,0.85,4.4,1.25l1.45,0.4
		c1.63,0.45,3.27,0.9,4.91,1.33l0.86,0.23c1.75,0.46,3.5,0.9,5.25,1.35l0.84,0.21c1.76,0.44,3.53,0.87,5.29,1.29l0.9,0.21
		c1.74,0.41,3.49,0.82,5.24,1.21l0.84,0.19l0.02,0c11.99,2.68,24.17,4.92,36.5,6.72l0.68,0.09l0.68,0.1l1.37,0.19l0.68,0.1
		l0.69,0.09l1.37,0.19l0.69,0.09l0.68,0.1l1.29,0.17l0.09,0.01l0.69,0.09l0.69,0.08l1.27,0.16l0.11,0.01l0.69,0.08l0.69,0.08
		l1.38,0.17l0.7,0.08l0.69,0.08c25.76,2.99,52.16,4.07,78.98,3.08l0.68-0.02l0.68-0.02C544.6,479.63,561.59,478.16,578.69,475.85
		L578.69,475.85z M507.43,419.46c-10.65-0.3-21.24-0.77-31.76-1.4l-0.98-86.56L507.43,419.46L507.43,419.46z M723.09,402.09
		c-9.07,1.77-18.24,3.42-27.49,4.94l28.3-75.54L723.09,402.09L723.09,402.09z M353.12,402.83c-27.08-5.16-53.45-11.44-78.96-18.76
		v-51.1h25.74c19.68,0,34.38,3.66,43.94,11.05c9.57,7.38,14.31,18.74,14.31,34.14C358.16,387.94,356.47,396.17,353.12,402.83z"/>
</g>
</svg>
